<?xml version="1.0" standalone="no"?>
<!DOCTYPE svg PUBLIC "-//W3C//DTD SVG 20010904//EN"
 "http://www.w3.org/TR/2001/REC-SVG-20010904/DTD/svg10.dtd">
<svg version="1.0" xmlns="http://www.w3.org/2000/svg"
 width="785.000000pt" height="785.000000pt" viewBox="0 0 785.000000 785.000000"
 preserveAspectRatio="xMidYMid meet">
<metadata>
Created by potrace 1.11, written by Peter Selinger 2001-2013
</metadata>
<g transform="translate(0.000000,785.000000) scale(0.100000,-0.100000)"
fill="#000000" stroke="none">
<path d="M3855 6530 c-134 -28 -237 -92 -325 -200 -25 -30 -49 -58 -55 -62 -5
-4 -6 -8 -1 -8 5 0 3 -6 -3 -14 -6 -7 -23 -47 -37 -87 -25 -70 -30 -111 -34
-301 0 -17 -20 -18 -276 -18 -175 0 -283 -4 -295 -11 -29 -15 -41 -53 -27 -86
6 -16 11 -31 10 -34 -1 -4 4 -6 11 -6 7 0 204 -1 440 -1 293 -2 427 -5 427
-13 0 -5 -6 -7 -12 -3 -10 6 -9 3 0 -9 25 -30 11 -61 -33 -75 -22 -7 -53 -23
-70 -36 -25 -20 -28 -26 -16 -40 12 -14 16 -13 47 10 45 35 101 41 150 18 21
-10 41 -21 44 -24 12 -15 39 -18 44 -5 7 19 -46 62 -94 76 -39 12 -40 14 -40
56 l0 44 117 -3 117 -3 -1 -83 c-1 -45 -5 -87 -8 -92 -3 -6 -3 -10 2 -10 4 0
7 -78 6 -173 -2 -227 -2 -224 -11 -211 -15 24 -78 50 -115 48 -23 -1 -75 -20
-124 -44 -91 -46 -141 -55 -220 -37 -24 6 -46 8 -49 4 -12 -12 38 -77 89 -114
44 -32 60 -38 107 -40 47 -1 67 5 140 42 88 45 163 64 175 45 6 -10 8 -142 6
-292 l-1 -38 -1366 0 -1366 0 -29 31 -29 32 -86 -7 c-47 -3 -89 -8 -94 -11
-14 -9 -83 26 -175 90 -155 107 -224 130 -232 77 -3 -23 31 -87 61 -111 8 -7
13 -18 9 -24 -3 -5 -1 -7 4 -4 6 4 16 0 22 -7 20 -24 5 -26 -103 -12 -26 4
-67 11 -90 15 -79 15 -251 12 -275 -5 -11 -8 -21 -21 -21 -27 0 -29 107 -63
227 -72 63 -5 104 -12 111 -20 6 -6 5 -6 -133 -10 -55 -2 -107 -6 -115 -9 -8
-2 -33 -7 -55 -10 -68 -8 -94 -23 -95 -53 0 -7 9 -13 19 -13 11 0 27 -7 35
-16 9 -9 16 -11 16 -4 0 6 4 9 8 6 8 -4 201 -10 212 -6 12 5 98 5 94 1 -7 -7
-252 -71 -281 -74 -11 -1 -19 -6 -16 -11 3 -4 0 -12 -8 -16 -20 -13 -20 -42 2
-47 10 -3 17 -9 14 -13 -3 -5 3 -7 12 -5 10 2 18 4 18 5 0 1 20 3 45 5 25 1
46 4 48 5 1 1 10 3 20 5 9 1 24 4 32 8 21 8 102 30 120 31 9 1 21 6 28 10 12
7 31 1 21 -7 -2 -2 -34 -24 -71 -50 -67 -47 -88 -78 -69 -100 19 -23 99 -5
224 52 38 17 74 28 79 24 6 -3 8 -2 5 4 -3 5 27 24 68 41 61 26 83 31 127 27
29 -2 96 -7 150 -11 96 -6 96 -6 113 20 l17 26 1074 -1 c815 -1 1072 -3 1067
-12 -4 -7 1 -6 10 2 20 16 19 17 18 -89 0 -36 -1 -74 -1 -85 0 -11 0 -69 1
-130 0 -60 0 -126 0 -145 -1 -19 -1 -43 -1 -52 0 -10 0 -29 0 -43 1 -14 1 -37
1 -52 0 -16 0 -37 -1 -48 0 -11 0 -65 1 -121 1 -56 -1 -106 -5 -112 -3 -6 -3
-13 2 -15 4 -3 6 -32 4 -64 -1 -32 -3 -65 -3 -73 1 -8 1 -28 0 -45 0 -37 0
-42 4 -80 1 -16 -1 -35 -6 -42 -4 -6 -4 -13 0 -16 7 -4 8 -111 3 -207 -1 -14
1 -40 3 -58 2 -18 0 -35 -5 -38 -5 -3 -5 -10 -1 -16 3 -7 6 -106 5 -222 -1
-116 -2 -221 -2 -233 1 -34 1 -80 0 -105 0 -13 0 -79 0 -148 0 -69 0 -132 0
-140 -1 -8 1 -27 3 -43 2 -15 0 -30 -4 -33 -5 -3 -6 -13 -1 -22 4 -9 6 -30 5
-47 -4 -42 -4 -65 0 -103 2 -17 0 -37 -4 -44 -4 -7 -3 -20 2 -30 10 -19 -1
-34 -61 -80 -90 -67 -194 -106 -309 -114 -148 -11 -201 -37 -240 -118 -26 -52
-26 -65 -3 -62 9 2 20 -2 24 -8 6 -8 8 -7 8 1 0 9 7 10 24 3 13 -5 27 -6 30
-2 11 11 36 11 36 0 0 -6 7 -4 17 3 14 12 16 12 8 0 -6 -11 -5 -12 6 -5 20 12
279 11 279 -1 0 -6 3 -6 8 0 8 11 57 13 68 3 3 -4 17 -3 29 2 16 6 25 5 29 -3
3 -9 5 -9 5 0 1 8 10 9 30 3 16 -4 32 -5 36 -2 11 11 139 8 147 -3 5 -7 8 -6
8 1 0 6 14 10 30 9 l30 -2 1 131 c0 72 -1 152 -1 178 -1 33 3 48 12 48 8 0 9
3 2 8 -7 5 -10 241 -10 759 l1 752 372 0 373 0 0 -67 c1 -37 2 -458 3 -937 l2
-870 118 0 c64 0 117 -4 117 -8 0 -5 6 -5 12 -1 18 11 308 11 308 0 0 -5 6 -4
13 1 14 10 237 10 254 0 6 -4 14 -3 18 3 4 6 11 7 17 4 16 -10 1 44 -24 84
-40 64 -95 87 -240 97 -112 8 -210 46 -310 123 -33 25 -44 38 -35 44 6 4 7 8
1 8 -7 0 -10 118 -10 370 -1 242 3 367 9 363 6 -4 7 -1 1 8 -13 21 -13 289 0
289 7 0 8 3 1 8 -14 10 -15 65 -1 74 7 5 7 8 1 8 -7 0 -11 51 -11 145 0 92 3
142 9 138 6 -4 7 -1 1 8 -13 20 -13 99 0 99 7 0 8 3 1 8 -14 10 -15 65 -1 74
7 5 7 8 1 8 -15 0 -16 70 -1 70 7 0 7 3 1 8 -14 10 -15 65 -1 74 7 5 7 8 1 8
-7 0 -11 51 -11 145 0 92 3 142 9 138 6 -4 7 -1 1 8 -13 20 -13 99 0 99 7 0 8
3 1 8 -14 10 -15 65 -1 74 7 5 7 8 1 8 -15 0 -16 70 -1 70 7 0 7 3 1 8 -14 10
-15 65 -1 74 7 5 7 8 0 8 -14 0 -14 310 0 310 6 0 4 5 -4 10 -10 6 361 9 1014
9 l1030 0 28 -29 c15 -17 28 -26 28 -22 0 12 54 9 62 -3 5 -7 8 -6 8 1 0 10
29 14 125 17 28 1 53 6 57 11 9 13 189 -65 181 -77 -3 -6 -1 -7 5 -3 6 3 37
-5 69 -20 125 -55 219 -76 229 -49 10 25 -26 69 -87 109 -33 21 -58 41 -55 43
6 7 116 -21 116 -29 0 -4 7 -4 17 -1 10 4 14 2 10 -4 -5 -7 0 -9 13 -6 11 3
28 2 37 -3 26 -11 29 -11 74 -13 22 0 38 -5 34 -10 -3 -5 13 -2 35 6 22 9 40
22 40 29 0 17 -61 59 -90 62 -3 0 -17 5 -33 11 -15 6 -38 13 -50 15 -174 37
-197 48 -92 45 39 -1 76 -7 84 -13 8 -6 12 -6 9 -1 -4 6 26 10 80 11 119 1
152 10 152 38 0 39 -104 61 -313 67 -42 1 -80 5 -82 9 -6 10 119 25 139 17 9
-4 18 -2 22 4 3 6 12 8 20 5 8 -3 14 -1 14 3 0 5 14 8 30 7 17 -1 30 1 30 6 0
4 7 8 15 8 27 0 65 23 65 41 0 16 -16 27 -50 36 -34 8 -211 1 -295 -11 -16 -3
-59 -8 -95 -12 l-65 -6 29 31 c16 16 33 28 37 25 5 -3 6 1 4 9 -3 7 3 22 15
32 11 10 20 27 20 37 0 11 4 17 9 14 4 -3 6 6 3 19 -2 13 -13 27 -24 31 -25 7
-122 -39 -203 -99 -131 -95 -140 -98 -253 -91 -85 6 -105 4 -127 -10 -14 -9
-25 -23 -25 -31 0 -13 -160 -15 -1323 -15 l-1324 0 1 168 2 167 45 -2 c31 -2
73 -17 130 -46 101 -51 151 -57 214 -27 48 23 125 101 125 125 0 12 -7 15 -32
10 -107 -18 -136 -15 -215 25 -74 38 -121 54 -155 53 -40 -2 -47 -4 -80 -26
l-34 -24 0 286 1 286 116 3 115 3 1 -44 c1 -43 0 -44 -41 -55 -62 -16 -126
-82 -80 -82 9 0 29 9 46 21 17 13 49 22 78 24 40 3 56 -1 92 -25 45 -30 73
-26 52 8 -13 21 -95 64 -110 58 -12 -5 -22 44 -16 77 3 16 32 17 428 17 411 0
425 1 444 20 27 27 26 74 -2 100 -21 19 -34 20 -303 20 l-281 0 0 83 c-1 114
-12 187 -38 254 -66 168 -184 278 -361 339 -57 19 -228 28 -290 14z m493
-2098 c0 -15 0 -29 1 -32 6 -18 2 -891 -4 -899 -4 -8 -122 -11 -373 -11 l-367
0 1 478 c1 262 2 480 3 484 0 4 167 7 370 7 l368 0 1 -27z"/>
<path d="M3633 5520 c-17 -10 -37 -28 -43 -40 -17 -32 -19 -92 -4 -121 7 -15
10 -30 6 -34 -4 -3 -2 -6 3 -4 6 1 30 -7 54 -19 32 -15 51 -18 68 -11 12 5 23
6 23 2 0 -4 11 4 24 16 15 14 30 20 37 16 8 -5 10 -4 5 4 -4 6 -3 17 2 24 13
16 17 65 8 102 -10 41 -69 85 -115 85 -20 0 -50 -9 -68 -20z"/>
<path d="M4184 5521 c-34 -21 -47 -37 -51 -61 -1 -8 -7 -16 -13 -18 -5 -2 -8
-8 -4 -13 3 -5 8 -22 10 -37 3 -15 13 -38 22 -52 9 -14 16 -27 15 -30 -2 -7
25 -10 93 -12 43 -2 55 2 77 24 36 36 48 85 32 132 -7 21 -15 39 -17 40 -1 1
-16 12 -32 24 -36 27 -90 28 -132 3z"/>
<path d="M2373 4325 c-255 -57 -464 -265 -524 -523 -16 -68 -17 -217 -3 -288
46 -219 189 -397 398 -495 140 -65 337 -75 493 -25 222 72 413 283 459 506 47
229 -11 446 -164 611 -90 98 -228 186 -314 203 -13 2 -42 9 -64 14 -62 14
-211 12 -281 -3z m249 -216 c117 -25 232 -105 298 -209 89 -138 94 -336 13
-480 -50 -88 -147 -172 -243 -210 -63 -25 -199 -35 -270 -19 -169 37 -319 189
-355 359 -70 335 224 630 557 559z"/>
<path d="M5301 4329 c-120 -21 -248 -90 -348 -188 -139 -136 -203 -282 -207
-476 -5 -201 63 -368 209 -508 143 -140 320 -206 514 -194 109 7 117 9 185 32
347 119 543 498 441 851 -66 228 -283 432 -510 479 -54 12 -229 14 -284 4z
m247 -224 c209 -55 352 -240 352 -455 0 -139 -51 -253 -156 -349 -253 -232
-660 -114 -764 221 -16 51 -20 155 -8 219 20 112 105 238 204 303 102 67 256
92 372 61z"/>
<path d="M1261 4314 c-124 -25 -226 -109 -284 -232 -29 -60 -32 -77 -32 -157
0 -78 4 -97 27 -141 49 -93 162 -174 298 -214 148 -43 250 -117 250 -181 0
-63 -63 -145 -135 -174 -48 -20 -124 -24 -192 -9 -62 13 -182 66 -194 86 -10
16 -22 8 -104 -66 l-77 -69 29 -24 c56 -46 140 -92 215 -117 281 -95 520 -13
641 218 29 56 32 69 32 151 -1 73 -5 98 -23 132 -60 114 -178 199 -355 257
-141 45 -197 90 -197 155 0 87 93 172 192 173 76 1 222 -48 243 -82 4 -6 40
22 86 66 l79 78 -22 24 c-29 30 -188 107 -253 121 -76 17 -155 19 -224 5z"/>
</g>
</svg>
