<svg xmlns="http://www.w3.org/2000/svg" width="79.776" height="55.307" viewBox="0 0 79.776 55.307">
  <g id="delivery" transform="translate(0 0)">
    <g id="Group_515" data-name="Group 515" transform="translate(50.195 35.195)">
      <g id="Group_514" data-name="Group 514">
        <path id="Path_247" data-name="Path 247" d="M332.207,304.4a10.056,10.056,0,1,0,10.056,10.056A10.067,10.067,0,0,0,332.207,304.4Zm0,15.084a5.028,5.028,0,1,1,5.028-5.028A5.033,5.033,0,0,1,332.207,319.487Z" transform="translate(-322.151 -304.403)"/>
      </g>
    </g>
    <g id="Group_517" data-name="Group 517" transform="translate(15.838 35.195)">
      <g id="Group_516" data-name="Group 516">
        <path id="Path_248" data-name="Path 248" d="M111.7,304.4a10.056,10.056,0,1,0,10.056,10.056A10.067,10.067,0,0,0,111.7,304.4Zm0,15.084a5.028,5.028,0,1,1,5.028-5.028A5.033,5.033,0,0,1,111.7,319.487Z" transform="translate(-101.647 -304.403)"/>
      </g>
    </g>
    <g id="Group_519" data-name="Group 519" transform="translate(51.536 5.028)">
      <g id="Group_518" data-name="Group 518" transform="translate(0 0)">
        <path id="Path_249" data-name="Path 249" d="M346.243,112.174A2.515,2.515,0,0,0,344,110.79h-13.24v5.028h11.69l6.845,13.615,4.493-2.259Z" transform="translate(-330.756 -110.79)"/>
      </g>
    </g>
    <g id="Group_521" data-name="Group 521" transform="translate(33.687 42.821)">
      <g id="Group_520" data-name="Group 520" transform="translate(0 0)">
        <rect id="Rectangle_700" data-name="Rectangle 700" width="19.022" height="5.028"/>
      </g>
    </g>
    <g id="Group_523" data-name="Group 523" transform="translate(7.123 42.821)">
      <g id="Group_522" data-name="Group 522" transform="translate(0 0)">
        <path id="Path_250" data-name="Path 250" d="M56.944,353.345H48.229a2.514,2.514,0,0,0,0,5.028h8.715a2.514,2.514,0,1,0,0-5.028Z" transform="translate(-45.715 -353.345)"/>
      </g>
    </g>
    <g id="Group_525" data-name="Group 525" transform="translate(7.123 0)">
      <g id="Group_524" data-name="Group 524">
        <path id="Path_251" data-name="Path 251" d="M117.84,105.973,112.9,99.6a2.51,2.51,0,0,0-1.985-.972H92.642v-17.6a2.514,2.514,0,0,0-2.514-2.514h-41.9a2.514,2.514,0,0,0,0,5.028H87.614v17.6a2.514,2.514,0,0,0,2.514,2.514h19.551l3.661,4.716v12.965h-6.955a2.514,2.514,0,0,0,0,5.028h9.469a2.514,2.514,0,0,0,2.514-2.514v-16.34A2.517,2.517,0,0,0,117.84,105.973Z" transform="translate(-45.715 -78.521)"/>
      </g>
    </g>
    <g id="Group_527" data-name="Group 527" transform="translate(4.106 30.084)">
      <g id="Group_526" data-name="Group 526">
        <path id="Path_252" data-name="Path 252" d="M40.431,271.6H28.867a2.514,2.514,0,0,0,0,5.028H40.431a2.514,2.514,0,0,0,0-5.028Z" transform="translate(-26.353 -271.597)"/>
      </g>
    </g>
    <g id="Group_529" data-name="Group 529" transform="translate(0 20.195)">
      <g id="Group_528" data-name="Group 528">
        <path id="Path_253" data-name="Path 253" d="M23.966,208.134H2.514a2.514,2.514,0,0,0,0,5.028H23.966a2.514,2.514,0,0,0,0-5.028Z" transform="translate(0 -208.134)"/>
      </g>
    </g>
    <g id="Group_531" data-name="Group 531" transform="translate(4.106 10.307)">
      <g id="Group_530" data-name="Group 530">
        <path id="Path_254" data-name="Path 254" d="M50.319,144.672H28.867a2.514,2.514,0,1,0,0,5.028H50.319a2.514,2.514,0,1,0,0-5.028Z" transform="translate(-26.353 -144.672)"/>
      </g>
    </g>
  </g>
</svg>
