<svg xmlns="http://www.w3.org/2000/svg" width="74.192" height="44.155" viewBox="0 0 74.192 44.155">
  <g id="E-stamp-icon-white" transform="translate(0.002 -0.002)">
    <g id="Lag_3" data-name="Lag 3" transform="translate(-0.002 0.002)">
      <path id="Path_34" data-name="Path 34" d="M74.714,19.677a1.22,1.22,0,0,1-1.289.659c-1.027-.039-2.06,0-3.085-.016a3.242,3.242,0,0,1-2.859-1.582A28.046,28.046,0,0,0,51.958,6.632,37.026,37.026,0,0,0,25.1,8.193a28.135,28.135,0,0,0-9.084,6.847c-1.079,1.2-2.135,2.425-3.145,3.685a3.991,3.991,0,0,1-3.343,1.6c-2.6-.019-5.191-.008-7.786,0-.418,0-.831.01-1.064-.427s.02-.785.243-1.124A41.292,41.292,0,0,1,9.843,9.31,41.412,41.412,0,0,1,25.876,1.358,37.181,37.181,0,0,1,33.723.129c2.361-.084,4.733-.2,7.088-.069A43.087,43.087,0,0,1,57.273,4.038a46.8,46.8,0,0,1,9.231,6.05,34.571,34.571,0,0,1,7.259,7.769c.33.5.637,1.017.954,1.526Z" transform="translate(-0.525 -0.002)" fill="#fff"/>
      <path id="Path_35" data-name="Path 35" d="M250.369,111.343a7.437,7.437,0,0,0,3.557,2.346,7.554,7.554,0,0,0,8.386-2.79,3.209,3.209,0,0,1,2.8-1.406c1.06.014,2.122,0,3.182,0,.732,0,1.026.392.774,1.074a13.016,13.016,0,0,1-10.413,8.935A13.323,13.323,0,0,1,243.3,109.436a13.411,13.411,0,0,1,25.323-8.5,5.045,5.045,0,0,1,.312.821,1.458,1.458,0,0,1-.981,1.66q-4.3,1.931-8.609,3.859-4.26,1.91-8.518,3.825C250.7,111.159,250.578,111.232,250.369,111.343Zm-1.63-3.707,13.29-6a7.524,7.524,0,0,0-13.29,6Z" transform="translate(-219.104 -83.811)" fill="#fff"/>
      <path id="Path_36" data-name="Path 36" d="M36.556,262.919a44.58,44.58,0,0,1-18.421-3.752,43.443,43.443,0,0,1-8.559-5.281,36.627,36.627,0,0,1-8.353-8.4c-.379-.55-.734-1.119-1.061-1.7-.382-.672-.071-1.215.7-1.223q1.836-.021,3.672,0a2.919,2.919,0,0,1,2.594,1.495,28.293,28.293,0,0,0,8.065,8.492,28.922,28.922,0,0,0,9.682,4.307,35.085,35.085,0,0,0,10.1,1.177,34.892,34.892,0,0,0,17.8-5.166,30.6,30.6,0,0,0,6.366-5.62c.95-1.052,1.842-2.158,2.746-3.255a3.608,3.608,0,0,1,2.916-1.439q4.162.01,8.326,0a.819.819,0,0,1,.834.387.9.9,0,0,1-.128.958,35.029,35.029,0,0,1-6.485,7.488,44.375,44.375,0,0,1-10.763,7.324,42.516,42.516,0,0,1-12.505,3.678c-2.34.294-2.827.224-5.178.427C37.635,262.919,36.752,262.919,36.556,262.919Z" transform="translate(0.002 -218.763)" fill="#fff"/>
    </g>
  </g>
</svg>
