<svg id="heart-icon-outline" xmlns="http://www.w3.org/2000/svg" width="70.216" height="59.914" viewBox="0 0 70.216 59.914">
  <path id="heart-shape-outline" d="M35.066,59.912a3.061,3.061,0,0,1-2.159-.9L5.353,31.473A18.427,18.427,0,1,1,31.411,5.412l3.63,3.63L38.7,5.387a18.446,18.446,0,0,1,26.058,0l.025.025a18.446,18.446,0,0,1,0,26.058L37.238,59.014a3.063,3.063,0,0,1-2.172.9ZM18.381,4.428a14.014,14.014,0,0,0-9.912,23.92l26.6,26.6,26.6-26.6a14.035,14.035,0,0,0,0-19.826L61.641,8.5a14.035,14.035,0,0,0-19.826,0l-5.059,5.059a2.423,2.423,0,0,1-3.426,0L28.293,8.526a13.977,13.977,0,0,0-9.912-4.1Z" transform="translate(0.045 0.002)"/>
</svg>
