<svg xmlns="http://www.w3.org/2000/svg" width="35.108" height="29.956" viewBox="0 0 35.108 29.956">
  <g id="Heart-icon" transform="translate(0 0)">
    <path id="Heart-shape" d="M17.511,29.955a1.531,1.531,0,0,1-1.08-.449L2.654,15.735A9.213,9.213,0,1,1,15.683,2.705L17.5,4.52l1.829-1.828a9.223,9.223,0,0,1,13.029,0l.013.013a9.223,9.223,0,0,1,0,13.029L18.6,29.506a1.532,1.532,0,0,1-1.086.449ZM9.168,2.213a7.007,7.007,0,0,0-4.956,11.96l13.3,13.3,13.3-13.3a7.017,7.017,0,0,0,0-9.913L30.8,4.251a7.018,7.018,0,0,0-9.913,0L18.355,6.78a1.212,1.212,0,0,1-1.713,0L14.124,4.262A6.988,6.988,0,0,0,9.168,2.213Z" transform="translate(0.045 0.002)"/>
  </g>
</svg>
