<svg xmlns="http://www.w3.org/2000/svg" width="23.678" height="33.675" viewBox="0 0 23.678 33.675">
  <g id="Location-icon-white" transform="translate(-76)">
    <g id="Group_223" data-name="Group 223" transform="translate(76)">
      <g id="Group_222" data-name="Group 222">
        <path id="Path_134" data-name="Path 134" d="M87.839,0A11.841,11.841,0,0,0,77.767,18.064l9.4,15.144a.987.987,0,0,0,.838.466h.008a.986.986,0,0,0,.839-.48L98.008,17.9A11.841,11.841,0,0,0,87.839,0Zm8.476,16.891-8.326,13.9L79.444,17.025a9.872,9.872,0,1,1,16.87-.133Z" transform="translate(-76)" fill="#fff"/>
      </g>
    </g>
    <g id="Group_225" data-name="Group 225" transform="translate(81.919 5.919)">
      <g id="Group_224" data-name="Group 224">
        <path id="Path_135" data-name="Path 135" d="M171.919,90a5.919,5.919,0,1,0,5.919,5.919A5.926,5.926,0,0,0,171.919,90Zm0,9.879a3.959,3.959,0,1,1,3.953-3.959A3.962,3.962,0,0,1,171.919,99.879Z" transform="translate(-166 -90)" fill="#fff"/>
      </g>
    </g>
  </g>
</svg>
