<svg xmlns="http://www.w3.org/2000/svg" width="30.782" height="21.643" viewBox="0 0 30.782 21.643">
  <g id="Mail-icon-white" transform="translate(0 -76)">
    <g id="Group_218" data-name="Group 218" transform="translate(0 76)">
      <path id="Path_133" data-name="Path 133" d="M28.076,76H2.705A2.709,2.709,0,0,0,0,78.705V94.938a2.709,2.709,0,0,0,2.705,2.705H28.076a2.709,2.709,0,0,0,2.705-2.705V78.705A2.708,2.708,0,0,0,28.076,76ZM27.7,77.8,17.3,88.142a2.705,2.705,0,0,1-3.828,0L3.084,77.8ZM1.8,94.571v-15.5L9.6,86.826ZM3.085,95.84,10.876,88.1,12.2,89.418a4.509,4.509,0,0,0,6.375,0L19.905,88.1,27.7,95.84Zm25.893-1.269-7.794-7.744,7.794-7.753Z" transform="translate(0 -76)" fill="#fff"/>
    </g>
  </g>
</svg>
