<svg xmlns="http://www.w3.org/2000/svg" width="133.339" height="23.383" viewBox="0 0 133.339 23.383">
  <g id="Mastercard-icon-color" transform="translate(-12.327 -6.166)">
    <path id="Path_150" data-name="Path 150" d="M190.762,44.447v-4.87a2.9,2.9,0,0,0-3.059-3.091,3.01,3.01,0,0,0-2.731,1.383,2.854,2.854,0,0,0-2.568-1.383,2.572,2.572,0,0,0-2.273,1.156v-.974H178.44v7.78h1.708V40.138a1.817,1.817,0,0,1,1.9-2.065c1.156,0,1.692.731,1.692,2.049v4.325h1.7V40.138a1.832,1.832,0,0,1,1.9-2.065c1.123,0,1.708.731,1.708,2.049v4.325Zm25.271-7.773h-2.763V34.316h-1.708v2.357h-1.578v1.546h1.578v3.542c0,1.805.7,2.88,2.7,2.88a3.974,3.974,0,0,0,2.114-.6l-.487-1.448a3.124,3.124,0,0,1-1.5.438c-.844,0-1.123-.52-1.123-1.3V38.219h2.763Zm14.426-.195a2.292,2.292,0,0,0-2.049,1.14v-.945h-1.675v7.773h1.692V40.089c0-1.3.552-2,1.659-2a2.757,2.757,0,0,1,1.058.195l.52-1.594A3.614,3.614,0,0,0,230.458,36.479Zm-21.809.812a5.812,5.812,0,0,0-3.172-.812c-1.968,0-3.247.945-3.247,2.487,0,1.27.942,2.049,2.682,2.292l.8.114c.925.13,1.367.373,1.367.812,0,.6-.617.945-1.773.945a4.143,4.143,0,0,1-2.6-.812l-.77,1.315a5.607,5.607,0,0,0,3.367,1.01c2.244,0,3.546-1.058,3.546-2.536,0-1.367-1.026-2.081-2.714-2.325l-.8-.114c-.731-.1-1.318-.244-1.318-.763,0-.568.552-.909,1.481-.909a5.01,5.01,0,0,1,2.422.666Zm45.3-.812a2.292,2.292,0,0,0-2.049,1.14v-.945h-1.675v7.773h1.692V40.089c0-1.3.552-2,1.659-2a2.757,2.757,0,0,1,1.059.195l.519-1.594A3.614,3.614,0,0,0,253.95,36.479ZM232.166,40.56a3.927,3.927,0,0,0,4.146,4.081,4.072,4.072,0,0,0,2.8-.929l-.812-1.367a3.416,3.416,0,0,1-2.033.7,2.492,2.492,0,0,1,0-4.974,3.416,3.416,0,0,1,2.033.7l.812-1.367a4.072,4.072,0,0,0-2.8-.929,3.927,3.927,0,0,0-4.146,4.081Zm15.838,0v-3.9h-1.692v.945a2.948,2.948,0,0,0-2.455-1.14,4.086,4.086,0,0,0,0,8.163,2.948,2.948,0,0,0,2.455-1.14v.942H248Zm-6.292,0a2.353,2.353,0,1,1,2.357,2.487A2.33,2.33,0,0,1,241.712,40.56ZM221.3,36.479a3.8,3.8,0,0,0-3.87,4.081,3.834,3.834,0,0,0,3.984,4.081A4.724,4.724,0,0,0,224.6,43.55l-.828-1.253a3.7,3.7,0,0,1-2.273.812,2.157,2.157,0,0,1-2.325-1.9h5.773c.016-.211.032-.422.032-.649,0-2.422-1.513-4.081-3.692-4.081Zm-.032,1.513a1.929,1.929,0,0,1,1.968,1.886h-4.029a2,2,0,0,1,2.065-1.886ZM263.69,40.56V33.55H262v4.065a2.948,2.948,0,0,0-2.455-1.14,4.086,4.086,0,0,0,0,8.163A2.948,2.948,0,0,0,262,43.5v.942h1.692Zm1.977,3.169a.5.5,0,0,1,.195.039.51.51,0,0,1,.159.107.5.5,0,0,1,.107.156.484.484,0,0,1,0,.383.5.5,0,0,1-.107.156.52.52,0,0,1-.159.107.487.487,0,0,1-.195.039.5.5,0,0,1-.468-.3.487.487,0,0,1,0-.383.494.494,0,0,1,.266-.263.51.51,0,0,1,.208-.039Zm0,.877a.367.367,0,0,0,.149-.029.392.392,0,0,0,.12-.081.385.385,0,0,0-.12-.627.373.373,0,0,0-.149-.029.383.383,0,1,0,.006.766Zm.029-.617a.208.208,0,0,1,.136.039.13.13,0,0,1,.049.107.123.123,0,0,1-.039.094.182.182,0,0,1-.107.045l.149.172h-.117l-.14-.172h-.045v.172h-.1v-.455Zm-.114.084V44.2h.114a.11.11,0,0,0,.062,0,.057.057,0,0,0,0-.091.11.11,0,0,0-.062,0ZM257.4,40.56a2.353,2.353,0,1,1,2.357,2.487A2.33,2.33,0,0,1,257.4,40.56Zm-57.113,0v-3.9H198.6v.945a2.948,2.948,0,0,0-2.445-1.13,4.086,4.086,0,0,0,0,8.163,2.948,2.948,0,0,0,2.455-1.14v.942H200.3Zm-6.292,0a2.353,2.353,0,1,1,2.357,2.487A2.33,2.33,0,0,1,194,40.56Z" transform="translate(-120.502 -22.657)" fill="#231f20"/>
    <g id="_Group_" data-name="&lt;Group&gt;" transform="translate(12.327 6.166)">
      <rect id="Rectangle_393" data-name="Rectangle 393" width="10.228" height="18.381" transform="translate(13.798 2.497)" fill="#ff5f00"/>
      <path id="_Path_" data-name="&lt;Path&gt;" d="M52.412,30.692A11.669,11.669,0,0,1,56.877,21.5a11.689,11.689,0,1,0,0,18.381A11.669,11.669,0,0,1,52.412,30.692Z" transform="translate(-37.965 -19)" fill="#eb001b"/>
      <path id="Path_151" data-name="Path 151" d="M115.123,30.682A11.689,11.689,0,0,1,96.21,39.871a11.689,11.689,0,0,0,0-18.381,11.689,11.689,0,0,1,18.913,9.192Z" transform="translate(-77.299 -18.991)" fill="#f79e1b"/>
      <path id="Path_152" data-name="Path 152" d="M150.527,76.345v-.377h.153v-.075h-.38v.078h.153v.377Zm.75,0V75.89h-.1l-.136.325-.136-.325h-.12v.455h.068V76l.127.3h.088l.127-.3v.344Z" transform="translate(-113.826 -57.415)" fill="#f79e1b"/>
    </g>
  </g>
</svg>
