<svg xmlns="http://www.w3.org/2000/svg" xmlns:xlink="http://www.w3.org/1999/xlink" width="141" height="45.434" viewBox="0 0 141 45.434">
  <defs>
    <linearGradient id="linear-gradient" x1="0.487" y1="0.76" x2="0.524" y2="-0.006" gradientUnits="objectBoundingBox">
      <stop offset="0" stop-color="#504678"/>
      <stop offset="0.302" stop-color="#504678" stop-opacity="0.616"/>
      <stop offset="0.608" stop-color="#504678" stop-opacity="0.282"/>
      <stop offset="0.852" stop-color="#504678" stop-opacity="0.075"/>
      <stop offset="1" stop-color="#504678" stop-opacity="0"/>
    </linearGradient>
    <linearGradient id="linear-gradient-3" x1="0.137" y1="0.663" x2="0.574" y2="0.413" gradientUnits="objectBoundingBox">
      <stop offset="0" stop-color="#504678"/>
      <stop offset="0.179" stop-color="#504678" stop-opacity="0.871"/>
      <stop offset="0.526" stop-color="#504678" stop-opacity="0.537"/>
      <stop offset="1" stop-color="#504678" stop-opacity="0"/>
    </linearGradient>
    <linearGradient id="linear-gradient-4" x1="0.477" y1="0.35" x2="0.453" y2="0.184" gradientUnits="objectBoundingBox">
      <stop offset="0" stop-color="#504678"/>
      <stop offset="0.643" stop-color="#504678" stop-opacity="0.333"/>
      <stop offset="1" stop-color="#504678" stop-opacity="0"/>
    </linearGradient>
  </defs>
  <g id="Mobilepay-icon-color" transform="translate(-0.002 -0.003)">
    <path id="Path_156" data-name="Path 156" d="M17.1,45.437a3.844,3.844,0,0,1-3.551-2.371L.3,11.061A3.838,3.838,0,0,1,2.372,6.047L16.258.3a3.837,3.837,0,0,1,5.014,2.077L34.529,34.378a3.838,3.838,0,0,1-2.077,5.013L18.567,45.144A3.821,3.821,0,0,1,17.1,45.437Zm.623-43.369a1.767,1.767,0,0,0-.678.136L3.162,7.955A1.771,1.771,0,0,0,2.2,10.27L15.461,42.277a1.774,1.774,0,0,0,2.315.959l13.886-5.755h0a1.771,1.771,0,0,0,.958-2.315l-13.257-32A1.774,1.774,0,0,0,17.727,2.068Z" transform="translate(0 0)" fill="#5a78ff"/>
    <rect id="Rectangle_395" data-name="Rectangle 395" width="2.066" height="13.717" transform="translate(20.238 5.274) rotate(-22.5)" opacity="0.7" fill="url(#linear-gradient)"/>
    <rect id="Rectangle_396" data-name="Rectangle 396" width="2.066" height="15.527" transform="translate(33.647 32.25) rotate(157.5)" opacity="0.7" fill="url(#linear-gradient)"/>
    <path id="Path_157" data-name="Path 157" d="M36.722,27.625a23.426,23.426,0,0,0-9.458,6.653l-5.6-13.519a23.637,23.637,0,0,1,9.458-6.653,22.762,22.762,0,0,1,11.392-1.979l5.6,13.518A23.627,23.627,0,0,0,36.722,27.625Z" transform="translate(-7.394 -4.093)" fill="#5a78ff"/>
    <g id="Group_267" data-name="Group 267" transform="translate(14.272 7.903)" opacity="0.4">
      <path id="Path_158" data-name="Path 158" d="M15.722,16.625a23.426,23.426,0,0,0-9.458,6.653L.666,9.759a23.637,23.637,0,0,1,9.458-6.653A22.762,22.762,0,0,1,21.516,1.127l5.6,13.518A23.626,23.626,0,0,0,15.722,16.625Z" transform="translate(-0.666 -0.996)" opacity="0.9" fill="url(#linear-gradient-3)"/>
      <path id="Path_159" data-name="Path 159" d="M15.722,16.625a23.426,23.426,0,0,0-9.458,6.653L.666,9.759a23.637,23.637,0,0,1,9.458-6.653A22.762,22.762,0,0,1,21.516,1.127l5.6,13.518A23.626,23.626,0,0,0,15.722,16.625Z" transform="translate(-0.666 -0.996)" opacity="0.7" fill="url(#linear-gradient-4)"/>
    </g>
    <path id="Path_160" data-name="Path 160" d="M41.445,34.894A23.416,23.416,0,0,0,30.162,37.42V23.751a23.637,23.637,0,0,1,11.283-2.526,22.8,22.8,0,0,1,11.283,2.529V37.423A23.626,23.626,0,0,0,41.445,34.894Zm21.959.013,3.478-10.994a.362.362,0,0,1,.323-.277h1.746a.428.428,0,0,1,.343.277L72,30.849c.053.138.191.152.237,0l2.687-6.936a.428.428,0,0,1,.343-.277h1.746a.362.362,0,0,1,.323.277l3.438,10.994a.263.263,0,0,1-.257.375H78.443a.3.3,0,0,1-.31-.237L75.926,27.9c-.033-.138-.191-.138-.237,0l-2.635,7.088a.389.389,0,0,1-.375.29H71.461c-.191,0-.29-.105-.362-.29L68.411,27.9c-.053-.138-.191-.138-.224,0l-2.259,7.14a.31.31,0,0,1-.323.237H63.629a.257.257,0,0,1-.224-.375Zm18.028-3.952a4.611,4.611,0,1,1,4.611,4.519,4.46,4.46,0,0,1-4.611-4.519Zm6.85,0a2.266,2.266,0,1,0-2.24,2.417,2.325,2.325,0,0,0,2.226-2.417Zm6.429,3.616c-.171-.138-.323-.086-.323.152v.224a.323.323,0,0,1-.31.323H92.473a.336.336,0,0,1-.323-.323V23.952a.336.336,0,0,1,.323-.323h1.693a.323.323,0,0,1,.31.323v3.135c0,.224.151.29.4.119a3.761,3.761,0,0,1,2.246-.751,4.278,4.278,0,0,1,4.143,4.519,4.321,4.321,0,0,1-4.216,4.519A3.5,3.5,0,0,1,94.712,34.57Zm4.216-3.6a2.266,2.266,0,1,0-4.519,0,2.293,2.293,0,0,0,2.246,2.378,2.325,2.325,0,0,0,2.272-2.4Zm3.748-6.541a1.317,1.317,0,1,1,1.317,1.317A1.317,1.317,0,0,1,102.676,24.433Zm.119,10.539V27a.323.323,0,0,1,.31-.323H104.8a.335.335,0,0,1,.349.323v7.944a.336.336,0,0,1-.323.323H103.1a.323.323,0,0,1-.31-.323Zm4.235-2.608V23.952a.323.323,0,0,1,.31-.323h1.693a.336.336,0,0,1,.323.323v8.464c0,.547.237.909.837.909a.323.323,0,0,1,.323.323v1.4a.323.323,0,0,1-.323.31C107.939,35.361,107.03,34.623,107.03,32.364Zm4.117-1.357a4.453,4.453,0,1,1,8.905.033c0,.31-.086.566-.4.566h-5.889c-.151,0-.2.086-.191.224a1.976,1.976,0,0,0,2.108,1.693,2.1,2.1,0,0,0,1.627-.738.659.659,0,0,1,.547-.277h1.574c.277,0,.4.191.29.461a4.512,4.512,0,0,1-8.563-1.976Zm6.251-.79c.119,0,.171-.053.151-.191a1.976,1.976,0,0,0-1.976-1.607,2.028,2.028,0,0,0-1.976,1.561c-.033.119,0,.237.138.237Zm4.077,4.729V23.952a.323.323,0,0,1,.31-.323h5.395c2.464,0,4.143,1.436,4.143,3.853s-1.9,3.906-4.262,3.906H124.2a.283.283,0,0,0-.31.323v3.234a.336.336,0,0,1-.323.323h-1.778A.323.323,0,0,1,121.475,34.946Zm5.586-5.546a1.858,1.858,0,0,0,1.8-1.9,1.758,1.758,0,0,0-1.8-1.811h-2.878c-.2,0-.29.105-.29.31V29.11c0,.2.086.31.29.31Zm5.092,1.555a4.354,4.354,0,0,1,4.249-4.519,3.452,3.452,0,0,1,2.279.876c.152.138.323.119.323-.086V27a.309.309,0,0,1,.31-.31h1.607a.336.336,0,0,1,.323.323v5.652c0,.428.152.619.448.659a.3.3,0,0,1,.29.277v1.489a.29.29,0,0,1-.29.29,2.228,2.228,0,0,1-2.174-.975c-.105-.171-.224-.2-.4-.033a3.781,3.781,0,0,1-2.76,1.146,4.34,4.34,0,0,1-4.209-4.565Zm6.85,0a2.259,2.259,0,1,0-4.505,0,2.259,2.259,0,1,0,4.505,0Zm3.774,7.331v-1.4a.323.323,0,0,1,.323-.31,2.4,2.4,0,0,0,2.464-1.647.949.949,0,0,0-.066-.659l-3.149-7.127a.31.31,0,0,1,.277-.461h1.693c.171,0,.277.138.343.31l1.976,4.558c.138.362.362.343.514,0l1.884-4.571c.066-.171.151-.277.323-.277h1.627a.3.3,0,0,1,.29.408l-3.241,7.667c-1.179,2.793-2.431,3.834-4.934,3.834A.336.336,0,0,1,142.777,38.285Z" transform="translate(-10.294 -7.24)" fill="#5a78ff"/>
  </g>
</svg>
