<svg id="Paypal-icon-color" xmlns="http://www.w3.org/2000/svg" width="118.532" height="28.944" viewBox="0 0 118.532 28.944">
  <path id="Path_77" data-name="Path 77" d="M280.954,124.363c-.931-1.1-2.583-1.675-4.778-1.675h-6.56a.912.912,0,0,0-.9.77l-2.653,16.819a.546.546,0,0,0,.539.631h3.367a.638.638,0,0,0,.629-.54l.753-4.767a.911.911,0,0,1,.9-.77h2.076c4.322,0,6.815-2.09,7.466-6.235A5.046,5.046,0,0,0,280.954,124.363Zm-4.022,4.468c-.358,2.354-2.156,2.354-3.9,2.354h-.99l.7-4.4a.544.544,0,0,1,.539-.461h.454c1.183,0,2.3,0,2.879.675A2.186,2.186,0,0,1,276.932,128.831Z" transform="translate(-185.068 -116.215)" fill="#179bd7"/>
  <path id="Path_78" data-name="Path 78" d="M326.278,140.59h-3.138a.543.543,0,0,0-.539.462l-.14.879-.22-.319c-.68-.987-2.2-1.317-3.709-1.317a7.224,7.224,0,0,0-7.012,6.317,5.934,5.934,0,0,0,1.17,4.826,4.919,4.919,0,0,0,3.956,1.6,6.009,6.009,0,0,0,4.347-1.8l-.14.872a.547.547,0,0,0,.54.633h2.828a.913.913,0,0,0,.9-.771l1.7-10.75A.547.547,0,0,0,326.278,140.59ZM321.9,146.7a3.5,3.5,0,0,1-3.545,3,2.433,2.433,0,0,1-2.6-3.053,3.517,3.517,0,0,1,3.52-3.024,2.648,2.648,0,0,1,2.094.856A2.7,2.7,0,0,1,321.9,146.7Z" transform="translate(-215.565 -128.05)" fill="#179bd7"/>
  <path id="Path_79" data-name="Path 79" d="M366.067,122.686h-3.031a.548.548,0,0,0-.54.462L359.8,140.276a.546.546,0,0,0,.539.631h2.707a.909.909,0,0,0,.9-.77l2.656-16.82A.547.547,0,0,0,366.067,122.686Z" transform="translate(-248.08 -116.214)" fill="#179bd7"/>
  <path id="Path_80" data-name="Path 80" d="M138.234,124.363c-.932-1.1-2.586-1.675-4.781-1.675h-6.559a.912.912,0,0,0-.9.77l-2.653,16.819a.546.546,0,0,0,.541.631h3.132a.911.911,0,0,0,.9-.77l.716-4.537a.91.91,0,0,1,.9-.77h2.076c4.32,0,6.814-2.09,7.465-6.235A5.053,5.053,0,0,0,138.234,124.363Zm-4.025,4.468c-.359,2.354-2.157,2.354-3.9,2.354h-.99l.694-4.4a.546.546,0,0,1,.54-.461h.454c1.184,0,2.3,0,2.879.675A2.186,2.186,0,0,1,134.209,128.831Z" transform="translate(-89.131 -116.215)" fill="#253b80"/>
  <path id="Path_81" data-name="Path 81" d="M183.553,140.59h-3.142a.547.547,0,0,0-.54.462l-.14.879-.22-.319c-.68-.987-2.2-1.317-3.709-1.317a7.224,7.224,0,0,0-7.013,6.317,5.933,5.933,0,0,0,1.17,4.826,4.917,4.917,0,0,0,3.956,1.6,6.012,6.012,0,0,0,4.348-1.8l-.14.872a.546.546,0,0,0,.539.633h2.829a.913.913,0,0,0,.9-.771l1.7-10.75A.545.545,0,0,0,183.553,140.59Zm-4.379,6.114a3.5,3.5,0,0,1-3.544,3,2.433,2.433,0,0,1-2.6-3.053,3.516,3.516,0,0,1,3.52-3.024,2.649,2.649,0,0,1,2.1.856A2.717,2.717,0,0,1,179.174,146.7Z" transform="translate(-119.624 -128.05)" fill="#253b80"/>
  <path id="Path_82" data-name="Path 82" d="M235.038,141.2h-3.156a.917.917,0,0,0-.755.4l-4.353,6.413-1.845-6.162a.914.914,0,0,0-.875-.65h-3.1a.547.547,0,0,0-.519.723l3.476,10.2-3.269,4.614a.547.547,0,0,0,.446.864h3.153a.911.911,0,0,0,.749-.391l10.5-15.153A.547.547,0,0,0,235.038,141.2Z" transform="translate(-154.381 -128.656)" fill="#253b80"/>
  <path id="Path_83" data-name="Path 83" d="M54.558,126.363a4.466,4.466,0,0,0-1.281-.988h0c-.027.171-.057.347-.092.527s-.069.332-.106.494c-1.146,5.009-4.347,7.157-8.518,7.608q-.417.045-.847.068-.472.026-.958.025H40.117a1.282,1.282,0,0,0-1.267,1.086l-1.2,7.589-.155.98-.382,2.43a.676.676,0,0,0,.666.781h4.681a1.127,1.127,0,0,0,1.113-.949l.046-.238.881-5.593.057-.308a1.125,1.125,0,0,1,1.113-.951h.7c4.536,0,8.086-1.841,9.124-7.17C55.93,129.529,55.705,127.67,54.558,126.363Z" transform="translate(-31.171 -118.021)" fill="#179bd7"/>
  <path id="Path_84" data-name="Path 84" d="M26.676,120.105l.043-.278,1.5-9.5a1.124,1.124,0,0,1,1.111-.95h7.051a14.653,14.653,0,0,1,2.326.17q.3.049.594.112t.56.144l.2.063.063.02.035.013a6.345,6.345,0,0,1,.937.4h0a5.752,5.752,0,0,0-1.22-5.171c-1.342-1.528-3.763-2.182-6.862-2.182h-9a1.286,1.286,0,0,0-1.271,1.087l-3.748,23.752a.773.773,0,0,0,.763.893h5.553l.155-.98Z" transform="translate(-18.998 -102.942)" fill="#253b80"/>
  <path id="Path_85" data-name="Path 85" d="M56.847,123.488a6.29,6.29,0,0,0-.937-.4l-.035-.013-.063-.02-.2-.063q-.272-.079-.56-.144t-.594-.112a14.652,14.652,0,0,0-2.326-.17H45.077a1.124,1.124,0,0,0-1.111.95l-1.5,9.5-.043.277a1.282,1.282,0,0,1,1.267-1.086h2.639q.486,0,.958-.026c.287-.015.569-.037.847-.068,4.172-.451,7.372-2.6,8.518-7.608.037-.162.073-.326.106-.494s.065-.356.092-.527Z" transform="translate(-34.743 -116.135)" fill="#222d65"/>
</svg>
