<svg xmlns="http://www.w3.org/2000/svg" width="60" height="46.667" viewBox="0 0 60 46.667">
  <path id="Paypal-icon-white" d="M19.406,55.563a2.235,2.235,0,0,1-2.292,2.24,1.505,1.505,0,0,1-1.667-1.562,2.259,2.259,0,0,1,2.26-2.292A1.564,1.564,0,0,1,19.406,55.563ZM8.385,50.51H7.9a.326.326,0,0,0-.333.281l-.448,2.781.854-.031c1.146,0,2.031-.156,2.24-1.479C10.448,50.667,9.563,50.51,8.385,50.51Zm29.583,0H37.5a.307.307,0,0,0-.333.281l-.438,2.781.833-.031c1.354,0,2.292-.312,2.292-1.875-.01-1.1-1-1.156-1.885-1.156ZM60,37V73.667a5,5,0,0,1-5,5H5a5,5,0,0,1-5-5V37a5,5,0,0,1,5-5H55A5,5,0,0,1,60,37ZM13.365,51.1c0-2.187-1.688-2.917-3.615-2.917H5.583a.55.55,0,0,0-.542.49L3.333,59.313a.359.359,0,0,0,.333.417H5.646a.665.665,0,0,0,.573-.594l.469-2.771c.1-.75,1.375-.49,1.875-.49,2.979,0,4.8-1.771,4.8-4.771Zm8.771.917H20.156c-.4,0-.417.573-.437.854a2.66,2.66,0,0,0-2.469-1.042,4.648,4.648,0,0,0-4.5,4.708,3.109,3.109,0,0,0,3.3,3.354,4.057,4.057,0,0,0,2.76-1.24,2.784,2.784,0,0,0-.1.646c0,.24.1.417.333.417h1.792c.281,0,.521-.3.573-.594l1.063-6.7a.354.354,0,0,0-.333-.406Zm4.219,10.2,6.635-9.646a.214.214,0,0,0,.052-.177.372.372,0,0,0-.333-.365h-2a.589.589,0,0,0-.469.26l-2.76,4.062-1.146-3.906a.632.632,0,0,0-.573-.417H23.813a.372.372,0,0,0-.333.365c0,.125,2.031,5.917,2.208,6.469a26.912,26.912,0,0,0-2.135,3.292.336.336,0,0,0,.333.333h2A.613.613,0,0,0,26.354,62.219ZM42.948,51.1c0-2.187-1.688-2.917-3.615-2.917H35.2a.574.574,0,0,0-.573.49L32.937,59.3a.371.371,0,0,0,.333.417h2.135a.446.446,0,0,0,.417-.333l.469-3.021c.1-.75,1.375-.49,1.875-.49A4.4,4.4,0,0,0,42.948,51.1Zm8.771.917H49.74c-.4,0-.417.573-.448.854a2.612,2.612,0,0,0-2.469-1.042,4.648,4.648,0,0,0-4.5,4.708,3.109,3.109,0,0,0,3.3,3.354,3.938,3.938,0,0,0,2.76-1.24,4.63,4.63,0,0,0-.1.646c0,.24.1.417.333.417h1.8c.281,0,.521-.3.573-.594l1.063-6.7A.354.354,0,0,0,51.719,52.021Zm4.948-3.469a.35.35,0,0,0-.333-.365H54.406a.345.345,0,0,0-.333.281L52.385,59.3l-.031.052a.369.369,0,0,0,.365.365h1.719a.645.645,0,0,0,.542-.594l1.688-10.542Zm-9.375,5.4a2.252,2.252,0,0,0-2.26,2.292A1.527,1.527,0,0,0,46.719,57.8a2.221,2.221,0,0,0,2.26-2.24A1.551,1.551,0,0,0,47.292,53.948Z" transform="translate(0 -32)" fill="#fff"/>
</svg>
