<svg xmlns="http://www.w3.org/2000/svg" width="30.328" height="30.464" viewBox="0 0 30.328 30.464">
  <g id="Phone-icon-white" transform="translate(-0.344 -6.33)">
    <g id="Group_226" data-name="Group 226" transform="translate(0.344 6.33)">
      <path id="Path_136" data-name="Path 136" d="M25.875,45.566a3.18,3.18,0,0,0-2.307-1.058,3.289,3.289,0,0,0-2.334,1.051l-2.156,2.15c-.177-.1-.355-.184-.525-.273-.246-.123-.478-.239-.676-.362a23.438,23.438,0,0,1-5.616-5.118,13.827,13.827,0,0,1-1.843-2.907C10.978,38.536,11.5,38,12,37.492c.191-.191.382-.389.573-.58a3.131,3.131,0,0,0,0-4.722l-1.863-1.863c-.212-.212-.43-.43-.635-.648-.409-.423-.839-.86-1.283-1.269a3.23,3.23,0,0,0-2.286-1,3.343,3.343,0,0,0-2.32,1l-.014.014-2.32,2.341A4.993,4.993,0,0,0,.373,33.937,11.963,11.963,0,0,0,1.246,39a29.384,29.384,0,0,0,5.221,8.708A32.115,32.115,0,0,0,17.16,56.082a16.661,16.661,0,0,0,6.005,1.774c.143.007.293.014.43.014a5.142,5.142,0,0,0,3.938-1.692c.007-.014.02-.02.027-.034a15.515,15.515,0,0,1,1.194-1.235c.293-.28.594-.573.887-.88a3.4,3.4,0,0,0,1.03-2.361,3.28,3.28,0,0,0-1.051-2.341Zm2.443,7.186c-.007,0-.007.007,0,0-.266.287-.539.546-.833.833a17.945,17.945,0,0,0-1.317,1.365A3.29,3.29,0,0,1,23.6,56.034c-.1,0-.212,0-.314-.007a14.8,14.8,0,0,1-5.323-1.6A30.314,30.314,0,0,1,7.893,46.541a27.705,27.705,0,0,1-4.914-8.182,9.744,9.744,0,0,1-.764-4.272,3.133,3.133,0,0,1,.942-2.027l2.327-2.327a1.551,1.551,0,0,1,1.037-.485,1.46,1.46,0,0,1,1,.478l.02.02c.416.389.812.792,1.228,1.222.212.218.43.437.648.662l1.863,1.863a1.3,1.3,0,0,1,0,2.116c-.2.2-.389.4-.587.587-.573.587-1.119,1.133-1.713,1.665-.014.014-.027.02-.034.034a1.392,1.392,0,0,0-.355,1.549l.02.061a14.957,14.957,0,0,0,2.2,3.6l.007.007a25.048,25.048,0,0,0,6.06,5.514,9.318,9.318,0,0,0,.839.457c.246.123.478.239.676.362.027.014.055.034.082.048a1.479,1.479,0,0,0,.676.171,1.459,1.459,0,0,0,1.037-.471l2.334-2.334a1.544,1.544,0,0,1,1.03-.512,1.39,1.39,0,0,1,.983.5l.014.014,3.76,3.76A1.349,1.349,0,0,1,28.318,52.752Z" transform="translate(-0.344 -27.406)" fill="#fff"/>
    </g>
  </g>
</svg>
