<svg xmlns="http://www.w3.org/2000/svg" width="57.703" height="57.703" viewBox="0 0 57.703 57.703">
  <g id="return" transform="translate(0 0)">
    <g id="Group_533" data-name="Group 533">
      <g id="Group_532" data-name="Group 532">
        <path id="Path_258" data-name="Path 258" d="M49.876,2.605a2.4,2.4,0,0,0-2.4,2.4v2A28.407,28.407,0,0,0,28.7,0,28.785,28.785,0,0,0,0,28.8a2.4,2.4,0,1,0,4.809,0A23.971,23.971,0,0,1,28.7,4.809,23.649,23.649,0,0,1,44.189,10.53h-2.2a2.4,2.4,0,1,0,0,4.809h7.891a2.4,2.4,0,0,0,2.4-2.4V5.009A2.4,2.4,0,0,0,49.876,2.605Z" transform="translate(0 0)"/>
      </g>
    </g>
    <g id="Group_535" data-name="Group 535" transform="translate(5.677 26.495)">
      <g id="Group_534" data-name="Group 534">
        <path id="Path_259" data-name="Path 259" d="M87.4,176.32a2.4,2.4,0,0,0-2.4,2.4A23.971,23.971,0,0,1,61.1,202.719a23.648,23.648,0,0,1-15.338-5.59h2.309a2.4,2.4,0,0,0,0-4.809H40.18c-.022,0-.041.006-.061.006a2.329,2.329,0,0,0-.273.028c-.067.01-.135.016-.2.031a2.418,2.418,0,0,0-.236.073c-.072.025-.145.047-.215.078s-.129.069-.192.1-.15.085-.221.136c-.018.013-.038.02-.057.035-.041.031-.072.07-.111.1a1.887,1.887,0,0,0-.333.352c-.047.061-.093.123-.135.188s-.078.137-.113.207a2.207,2.207,0,0,0-.095.21c-.028.075-.049.149-.07.226s-.04.147-.052.222-.02.171-.026.257c0,.049-.014.1-.014.148v7.925a2.4,2.4,0,1,0,4.809,0v-1.911A28.418,28.418,0,0,0,61.1,207.528a28.785,28.785,0,0,0,28.7-28.8A2.4,2.4,0,0,0,87.4,176.32Z" transform="translate(-37.776 -176.32)"/>
      </g>
    </g>
  </g>
</svg>
