<svg xmlns="http://www.w3.org/2000/svg" width="766.269" height="516.548" viewBox="0 0 766.269 516.548">
  <g id="Soho-full-body-logo" transform="translate(-111.706 -543)">
    <rect id="Rectangle_8" data-name="Rectangle 8" width="586" height="24" transform="translate(207 727)"/>
    <rect id="Rectangle_15" data-name="Rectangle 15" width="236" height="14" rx="7" transform="translate(382 613)"/>
    <path id="Rectangle_17" data-name="Rectangle 17" d="M56,0h2a56,56,0,0,1,56,56v0a0,0,0,0,1,0,0H0a0,0,0,0,1,0,0v0A56,56,0,0,1,56,0Z" transform="translate(443 543)"/>
    <rect id="Rectangle_16" data-name="Rectangle 16" width="114" height="14" transform="translate(443 599)" fill="#fff"/>
    <rect id="Rectangle_12" data-name="Rectangle 12" width="110" height="24" transform="translate(445 848)"/>
    <rect id="Rectangle_10" data-name="Rectangle 10" width="253" height="24" transform="translate(463 733) rotate(90)"/>
    <rect id="Rectangle_13" data-name="Rectangle 13" width="39" height="24" transform="translate(463 986) rotate(90)" fill="#fff"/>
    <rect id="Rectangle_11" data-name="Rectangle 11" width="253" height="24" transform="translate(562 733) rotate(90)"/>
    <rect id="Rectangle_18" data-name="Rectangle 18" width="110" height="6" transform="translate(503 623) rotate(90)"/>
    <rect id="Rectangle_14" data-name="Rectangle 14" width="39" height="24" transform="translate(562 986) rotate(90)" fill="#fff"/>
    <path id="Path_1" data-name="Path 1" d="M2620,1025s-15.789,16.757-39.105,16.86-24.045,17.687-24.045,17.687h86.724V1025Z" transform="translate(-2181)"/>
    <path id="Path_2" data-name="Path 2" d="M2580.425,1025s15.789,16.757,39.105,16.86,24.045,17.687,24.045,17.687H2556.85V1025Z" transform="translate(-2018.85)"/>
    <g id="Ellipse_4" data-name="Ellipse 4" transform="translate(577 763)" fill="none" stroke="#000" stroke-width="22">
      <circle cx="69" cy="69" r="69" stroke="none"/>
      <circle cx="69" cy="69" r="58" fill="none"/>
    </g>
    <g id="Ellipse_5" data-name="Ellipse 5" transform="translate(286 763)" fill="none" stroke="#000" stroke-width="22">
      <circle cx="69" cy="69" r="69" stroke="none"/>
      <circle cx="69" cy="69" r="58" fill="none"/>
    </g>
    <path id="Path_3" data-name="Path 3" d="M2542.648,199.009c-10.738-11.06-46.616-23.657-60.463,4.589-3.6,7.344-3.77,13.37-1.945,18.555,4.793,13.647,25,18.435,25,18.435S2551.3,252.7,2533.6,282.214s-58.228,14.5-69.051,2.443" transform="translate(-2271.648 589.111)" fill="none" stroke="#000" stroke-width="22"/>
    <circle id="Ellipse_6" data-name="Ellipse 6" cx="12.5" cy="12.5" r="12.5" transform="translate(460 643)"/>
    <circle id="Ellipse_7" data-name="Ellipse 7" cx="12.5" cy="12.5" r="12.5" transform="translate(515 643)"/>
    <path id="Path_4" data-name="Path 4" d="M2650.542,686.275a16.15,16.15,0,0,1,12.069-5.363,18.584,18.584,0,0,1,12.931,5.363" transform="translate(-2190.542 -42.946)" fill="none" stroke="#000" stroke-linecap="round" stroke-width="4"/>
    <path id="Path_5" data-name="Path 5" d="M2650.542,686.275a16.15,16.15,0,0,1,12.069-5.363,18.584,18.584,0,0,1,12.931,5.363" transform="translate(-2135.542 -42.946)" fill="none" stroke="#000" stroke-linecap="round" stroke-width="4"/>
    <line id="Line_1" data-name="Line 1" y1="13" transform="translate(472.5 624.5)" fill="none" stroke="#000" stroke-width="2"/>
    <line id="Line_2" data-name="Line 2" y1="13" transform="translate(527.5 624.5)" fill="none" stroke="#000" stroke-width="2"/>
    <path id="Path_6" data-name="Path 6" d="M2655.532,154.572s6.466-11.941,16.756-10.819,16.8,8.923,22.76,8.992,8.606.034,14.974-1.555-8.547,17.727-20.052,16.069-17.108-8.644-22.264-9.32-7.331-1-12.174,0S2655.532,154.572,2655.532,154.572Z" transform="translate(-2156.379 535.822)"/>
    <path id="Path_7" data-name="Path 7" d="M2709.394,154.572s-6.466-11.941-16.756-10.819-16.8,8.923-22.76,8.992-8.606.034-14.974-1.555,8.547,17.727,20.052,16.069,17.108-8.644,22.264-9.32,7.331-1,12.174,0S2709.394,154.572,2709.394,154.572Z" transform="translate(-2208.546 535.822)"/>
    <path id="Polygon_1" data-name="Polygon 1" d="M11.5,0,23,37H0Z" transform="translate(505 727) rotate(90)" fill="#fff"/>
    <path id="Polygon_2" data-name="Polygon 2" d="M11.5,0,23,37H0Z" transform="translate(496 750) rotate(-90)" fill="#fff"/>
    <path id="Path_8" data-name="Path 8" d="M2831.176,195.6c1.5-1.687-6.3-2.126-5.5-7.916s2.911-9.308,10.236-8.716,13.592,3.027,17.118,2.361,16.236-9.008,18.5-10.242,16.412-9.671,19.127-5.932-3.6,11.181-10.11,16.174,16.191,1.267,18.432,1.267,31.237-1.892,30.07,5.087-35.266,4.861-35.413,6.679,41.382,2.738,40.377,10.295-40.138-.48-40.377,1.152,36.26,8.426,32.657,15.968-36.637-8.634-37.543-6.716,18.089,11.342,13.5,16.852-41.717-18.515-44.515-18.637-27.382,1.259-28.719,0-5.445-4.648-4.8-10.05S2829.672,197.282,2831.176,195.6Z" transform="matrix(0.998, -0.07, 0.07, 0.998, -2065.14, 739.924)" fill="#fff"/>
    <path id="Path_9" data-name="Path 9" d="M7.034,37.136c1.5,1.687-6.3,2.126-5.5,7.916s2.911,9.308,10.236,8.716,13.592-3.027,17.118-2.361,16.236,9.008,18.5,10.242S63.8,71.319,66.511,67.58,62.911,56.4,56.4,51.406s16.192-1.267,18.433-1.267,31.237,1.892,30.07-5.087S69.637,40.191,69.49,38.372s41.382-2.738,40.377-10.295-40.139.48-40.377-1.152,36.26-8.426,32.657-15.968S65.51,19.59,64.6,17.673,82.692,6.331,78.1.821,36.386,19.336,33.589,19.458s-27.382-1.259-28.719,0-5.445,4.648-4.8,10.05S5.53,35.449,7.034,37.136Z" transform="matrix(-0.998, -0.07, 0.07, -0.998, 221.323, 775.527)" fill="#fff"/>
  </g>
</svg>
