<svg xmlns="http://www.w3.org/2000/svg" width="236" height="160.181" viewBox="0 0 236 160.181">
  <g id="Soho-logo-head-black" transform="translate(-382 -543)">
    <rect id="Rectangle_15" data-name="Rectangle 15" width="236" height="14" rx="7" transform="translate(382 613)"/>
    <path id="Rectangle_17" data-name="Rectangle 17" d="M56,0h2a56,56,0,0,1,56,56v0a0,0,0,0,1,0,0H0a0,0,0,0,1,0,0v0A56,56,0,0,1,56,0Z" transform="translate(443 543)"/>
    <circle id="Ellipse_6" data-name="Ellipse 6" cx="12.5" cy="12.5" r="12.5" transform="translate(460 643)"/>
    <circle id="Ellipse_7" data-name="Ellipse 7" cx="12.5" cy="12.5" r="12.5" transform="translate(515 643)"/>
    <path id="Path_4" data-name="Path 4" d="M2650.542,686.275a16.15,16.15,0,0,1,12.069-5.363,18.584,18.584,0,0,1,12.931,5.363" transform="translate(-2190.542 -42.946)" fill="none" stroke="#000" stroke-linecap="round" stroke-width="4"/>
    <path id="Path_5" data-name="Path 5" d="M2650.542,686.275a16.15,16.15,0,0,1,12.069-5.363,18.584,18.584,0,0,1,12.931,5.363" transform="translate(-2135.542 -42.946)" fill="none" stroke="#000" stroke-linecap="round" stroke-width="4"/>
    <line id="Line_1" data-name="Line 1" y1="13" transform="translate(472.5 624.5)" fill="none" stroke="#000" stroke-width="2"/>
    <line id="Line_2" data-name="Line 2" y1="13" transform="translate(527.5 624.5)" fill="none" stroke="#000" stroke-width="2"/>
    <path id="Path_7" data-name="Path 7" d="M2709.394,154.572s-6.466-11.941-16.756-10.819-16.8,8.923-22.76,8.992-8.606.034-14.974-1.555,8.547,17.727,20.052,16.069,19.036-8.277,22.264-9.32a16.843,16.843,0,0,1,10.324-.731C2712.387,158.2,2709.394,154.572,2709.394,154.572Z" transform="translate(-2209.344 535.822)"/>
    <path id="Path_54" data-name="Path 54" d="M2654.293,154.572s6.466-11.941,16.757-10.819,16.8,8.923,22.76,8.992,8.606.034,14.974-1.555-8.547,17.727-20.052,16.069-19.036-8.277-22.264-9.32a16.844,16.844,0,0,0-10.324-.731C2651.3,158.2,2654.293,154.572,2654.293,154.572Z" transform="translate(-2154.344 535.822)"/>
  </g>
</svg>
