<svg xmlns="http://www.w3.org/2000/svg" width="64.404" height="59.861" viewBox="0 0 64.404 59.861">
  <path id="Star-icon" d="M31.577,2.826a1,1,0,0,1,1.9,0l6.5,19.377a1,1,0,0,0,.948.682H61.891a1,1,0,0,1,.575,1.818L45.558,36.6a1,1,0,0,0-.373,1.136l6.471,19.288a1,1,0,0,1-1.524,1.136L33.1,46.175a1,1,0,0,0-1.151,0L14.917,58.16a1,1,0,0,1-1.524-1.136l6.471-19.288a1,1,0,0,0-.373-1.136L2.584,24.7a1,1,0,0,1,.575-1.818H24.127a1,1,0,0,0,.948-.682Z" transform="translate(-0.323 -0.344)" fill="none" stroke="#000" stroke-linecap="round" stroke-width="3.6"/>
</svg>
