<svg xmlns="http://www.w3.org/2000/svg" width="60" height="46.667" viewBox="0 0 60 46.667">
  <path id="Stripe-icon-white" d="M51.292,51.667c-.927,0-1.948.7-1.948,2.365h3.823C53.167,52.365,52.2,51.667,51.292,51.667Zm-12.229.271a2.218,2.218,0,0,0-1.771.729l.021,5.5a2.247,2.247,0,0,0,1.75.7c1.365,0,2.281-1.49,2.281-3.479C41.344,53.448,40.406,51.927,39.063,51.938ZM55,32H5a5,5,0,0,0-5,5V73.667a5,5,0,0,0,5,5H55a5,5,0,0,0,5-5V37A5,5,0,0,0,55,32ZM12.729,57.948c0,2.667-2.115,4.177-5.2,4.2A10.237,10.237,0,0,1,3.49,61.3V57.771a9.462,9.462,0,0,0,4.052,1.177c.823,0,1.417-.219,1.417-.906,0-1.771-5.625-1.1-5.625-5.2,0-2.625,2-4.187,5-4.187a9.765,9.765,0,0,1,3.677.677v3.479a8.318,8.318,0,0,0-3.677-.948c-.781,0-1.26.229-1.26.8,0,1.667,5.656.875,5.656,5.281Zm7.167-5.9H17.083v5.26c0,2.177,2.344,1.5,2.813,1.312v3.01a5.692,5.692,0,0,1-2.594.49,3.724,3.724,0,0,1-3.844-3.8l.021-11.865,3.615-.771V48.9h2.8Zm7.708.25a2.626,2.626,0,0,0-2.823.771v8.792h-3.7V48.9h3.2l.229,1.094A2.517,2.517,0,0,1,27.594,48.9h.01ZM32.2,61.865H28.479V48.9H32.2Zm0-14.885-3.719.792V44.76l3.719-.792Zm7.719,15.156A4.17,4.17,0,0,1,37.3,61.2l-.01,4.187-3.7.781V48.9h3.26l.188.917a4.178,4.178,0,0,1,2.9-1.156c2.594,0,5.042,2.344,5.042,6.646,0,4.7-2.417,6.823-5.063,6.833Zm16.708-5.365h-7.24c.167,1.729,1.438,2.24,2.875,2.24a7.81,7.81,0,0,0,3.635-.823v2.979a8.37,8.37,0,0,1-4.1.958c-3.6,0-6.125-2.26-6.125-6.719,0-3.771,2.135-6.76,5.656-6.76s5.344,2.99,5.344,6.781C56.667,55.792,56.635,56.563,56.625,56.771Z" transform="translate(0 -32)" fill="#fff"/>
</svg>
