<svg xmlns="http://www.w3.org/2000/svg" width="125.004" height="21.785" viewBox="0 0 125.004 21.785">
  <g id="Trustpilot-starts" transform="translate(-132.5 -716.774)">
    <path id="Path_74" data-name="Path 74" d="M19264.932-4345.561l2.756-8.264,2.625,8.264h8.746l-7.023,5.18-4.348,3.21,4.953-1.314,2.074,6.444-7.027-5.13-7.125,5.13,2.777-8.34-7.254-5.18Z" transform="translate(-19123.586 5070.6)"/>
    <path id="Path_184" data-name="Path 184" d="M19264.932-4345.561l2.756-8.264,2.625,8.264h8.746l-7.023,5.18-4.348,3.21,4.953-1.314,2.074,6.444-7.027-5.13-7.125,5.13,2.777-8.34-7.254-5.18Z" transform="translate(-19098.078 5070.6)"/>
    <path id="Path_185" data-name="Path 185" d="M19264.932-4345.561l2.756-8.264,2.625,8.264h8.746l-7.023,5.18-4.348,3.21,4.953-1.314,2.074,6.444-7.027-5.13-7.125,5.13,2.777-8.34-7.254-5.18Z" transform="translate(-19072.57 5070.6)"/>
    <path id="Path_186" data-name="Path 186" d="M19264.932-4345.561l2.756-8.264,2.625,8.264h8.746l-7.023,5.18-4.348,3.21,4.953-1.314,2.074,6.444-7.027-5.13-7.125,5.13,2.777-8.34-7.254-5.18Z" transform="translate(-19047.063 5070.6)"/>
    <path id="Path_187" data-name="Path 187" d="M19264.932-4345.561l2.756-8.264,2.625,8.264h8.746l-7.023,5.18-4.348,3.21,4.953-1.314,2.074,6.444-7.027-5.13-7.125,5.13,2.777-8.34-7.254-5.18Z" transform="translate(-19021.555 5070.6)"/>
  </g>
</svg>
