<svg xmlns="http://www.w3.org/2000/svg" width="220" height="46.466" viewBox="0 0 220 46.466">
  <g id="Trustpilot-stars" transform="translate(0 0)">
    <path id="Path_74" data-name="Path 74" d="M19274.953-4336.2l5.877-17.627,5.6,17.627h18.652l-14.984,11.051-9.271,6.846,10.564-2.8,4.422,13.746-14.986-10.943-15.2,10.943,5.928-17.789-15.471-11.051Z" transform="translate(-19199.086 4353.825)"/>
    <path id="Path_255" data-name="Path 255" d="M19274.953-4336.2l5.877-17.627,5.6,17.627h18.652l-14.984,11.051-9.271,6.846,10.564-2.8,4.422,13.746-14.986-10.943-15.2,10.943,5.928-17.789-15.471-11.051Z" transform="translate(-19142.086 4353.825)"/>
    <path id="Path_256" data-name="Path 256" d="M19274.953-4336.2l5.877-17.627,5.6,17.627h18.652l-14.984,11.051-9.271,6.846,10.564-2.8,4.422,13.746-14.986-10.943-15.2,10.943,5.928-17.789-15.471-11.051Z" transform="translate(-19085.086 4353.825)"/>
    <path id="Path_257" data-name="Path 257" d="M19274.953-4336.2l5.877-17.627,5.6,17.627h18.652l-14.984,11.051-9.271,6.846,10.564-2.8,4.422,13.746-14.986-10.943-15.2,10.943,5.928-17.789-15.471-11.051Z" transform="translate(-19256.086 4353.825)"/>
  </g>
</svg>
