<svg xmlns="http://www.w3.org/2000/svg" width="71.52" height="23.203" viewBox="0 0 71.52 23.203">
  <g id="Visa-icon-color" transform="translate(-314.731 -1428.891)">
    <g id="Group_265" data-name="Group 265" transform="translate(314.731 1428.891)">
      <path id="Path_153" data-name="Path 153" d="M42.231,74.335H36.395L40.042,51.92h5.836ZM31.485,51.92,25.921,67.337l-.658-3.32h0L23.3,53.938a2.5,2.5,0,0,0-2.768-2.018h-9.2l-.108.38a21.832,21.832,0,0,1,6.1,2.562L22.4,74.335h6.081L37.766,51.92H31.485Zm45.9,22.415h5.359L78.074,51.919H73.383a2.682,2.682,0,0,0-2.694,1.67l-8.7,20.745h6.083l1.217-3.33H76.7l.684,3.33Zm-6.422-7.929,3.066-8.388,1.725,8.388Zm-8.524-9.1.833-4.814a16.845,16.845,0,0,0-5.249-.977c-2.9,0-9.773,1.266-9.773,7.421,0,5.791,8.072,5.863,8.072,8.9s-7.24,2.5-9.63.579l-.868,5.033a16.354,16.354,0,0,0,6.587,1.266c3.983,0,9.99-2.062,9.99-7.674,0-5.828-8.144-6.371-8.144-8.9s5.684-2.209,8.181-.833Z" transform="translate(-11.226 -51.519)" fill="#2566af"/>
    </g>
    <path id="Path_154" data-name="Path 154" d="M25.264,64.285,23.3,54.2a2.5,2.5,0,0,0-2.768-2.018h-9.2l-.108.38a22.611,22.611,0,0,1,8.661,4.349A17.479,17.479,0,0,1,25.264,64.285Z" transform="translate(303.505 1377.105)" fill="#e6a540"/>
  </g>
</svg>
