<svg xmlns="http://www.w3.org/2000/svg" viewBox="0 0 153.68 96.43"><g id="Layer_2" data-name="Layer 2"><g id="Layer_1-2" data-name="Layer 1"><path d="M153.62,2.5A2.28,2.28,0,0,0,151.7.79C130.93-4,115.68,14,111.29,20l0,0-.67-1.24-2.41-3.3-4.7-6.92h-.35l-.06-.08-.13.07L73.78,7.75,22.58,37.41l6.64,13.36c-11.73,1.69-26.38,17.4-27,18.11L0,71.24l3.21.15a121.19,121.19,0,0,0,12.59,0,12.41,12.41,0,0,1,2.51,1.32c2.17,1.31,4.63,2.81,6.9,2.62a12.58,12.58,0,0,0,7.27-3.58,12,12,0,0,0,3.08,4.53A5,5,0,0,0,39.7,77.8,6.54,6.54,0,0,0,43.28,76L51,90.91l32.3,4.78.4.74,52.35-31-7.18-13.2-9.08-16.74c2.56.37,6,.66,8-.11a8.56,8.56,0,0,0,5.31-5.13,7.28,7.28,0,0,0-.08-4.55,10.53,10.53,0,0,0,7.27-3,13.06,13.06,0,0,0,3.88-10,34.77,34.77,0,0,1,3.6-3.09C151.79,6.35,154.06,4.45,153.62,2.5ZM126.34,53.91l5.6,10.33-47.13,28L55.63,38.86,102.24,12.3l3.36,4.6,3.1,4.58ZM74.55,10.76l23.35.56L53.55,36.59l-.32.23-23.36-.17ZM52.94,88.17l-7.6-14.74c1.94-2.75,5.23-7.85,4.85-10.26l-3,.46c.07.81-1.44,3.71-3.46,6.77l0-.06-1.22,1.88-.17.23h0l0,0c-.36.56-1.69,2.18-3,2.34a2,2,0,0,1-1.7-.73c-2.94-2.79-2.74-5.36-2.73-5.45L32.19,67.6c0,.05-3.17,4.41-7.22,4.74-1.31.09-3.5-1.23-5.11-2.2-1.77-1.07-3.06-1.84-4.23-1.74-2.51.22-6.2.18-8.88.11C11.61,63.76,23,53.62,31.17,53.62h.19c.73.09,7.52,1,12,1.69l.43-3L32.56,50.76,27,39.63l25.7.19L81.47,92.39Zm92.95-81c-3.45,2.73-4.84,3.89-4.78,5.31l0,.18a10,10,0,0,1-2.95,7.83,7.88,7.88,0,0,1-7.38,2l-3.46-.68,1.91,3a5.29,5.29,0,0,1,1,4.54,5.65,5.65,0,0,1-3.54,3.27c-1.65.64-6,.09-8.77-.47l-5-9.26c2.34-3.43,16.93-23.31,37.29-19.34A46.49,46.49,0,0,1,145.89,7.21Z"/></g></g></svg>