<svg xmlns="http://www.w3.org/2000/svg" xmlns:xlink="http://www.w3.org/1999/xlink" width="845" height="271" viewBox="0 0 845 271">
  <defs>
    <filter id="Rectangle_15" x="0" y="100" width="290" height="34" filterUnits="userSpaceOnUse">
      <feOffset dy="3" input="SourceAlpha"/>
      <feGaussianBlur stdDeviation="3" result="blur"/>
      <feFlood flood-opacity="0.161"/>
      <feComposite operator="in" in2="blur"/>
      <feComposite in="SourceGraphic"/>
    </filter>
    <filter id="Rectangle_17" x="70" y="19" width="149" height="83" filterUnits="userSpaceOnUse">
      <feOffset dy="3" input="SourceAlpha"/>
      <feGaussianBlur stdDeviation="3" result="blur-2"/>
      <feFlood flood-opacity="0.161"/>
      <feComposite operator="in" in2="blur-2"/>
      <feComposite in="SourceGraphic"/>
    </filter>
    <filter id="Rectangle_16" x="70" y="84" width="149" height="34" filterUnits="userSpaceOnUse">
      <feOffset dy="3" input="SourceAlpha"/>
      <feGaussianBlur stdDeviation="3" result="blur-3"/>
      <feFlood flood-opacity="0.161"/>
      <feComposite operator="in" in2="blur-3"/>
      <feComposite in="SourceGraphic"/>
    </filter>
    <filter id="Ellipse_6" x="90" y="135" width="46" height="47" filterUnits="userSpaceOnUse">
      <feOffset dy="3" input="SourceAlpha"/>
      <feGaussianBlur stdDeviation="3" result="blur-4"/>
      <feFlood flood-opacity="0.161"/>
      <feComposite operator="in" in2="blur-4"/>
      <feComposite in="SourceGraphic"/>
    </filter>
    <filter id="Ellipse_7" x="154" y="135" width="46" height="47" filterUnits="userSpaceOnUse">
      <feOffset dy="3" input="SourceAlpha"/>
      <feGaussianBlur stdDeviation="3" result="blur-5"/>
      <feFlood flood-opacity="0.161"/>
      <feComposite operator="in" in2="blur-5"/>
      <feComposite in="SourceGraphic"/>
    </filter>
    <filter id="Path_4" x="86.935" y="127.003" width="52.455" height="29.007" filterUnits="userSpaceOnUse">
      <feOffset dy="3" input="SourceAlpha"/>
      <feGaussianBlur stdDeviation="3" result="blur-6"/>
      <feFlood flood-opacity="0.161"/>
      <feComposite operator="in" in2="blur-6"/>
      <feComposite in="SourceGraphic"/>
    </filter>
    <filter id="Path_5" x="150.338" y="127.003" width="52.455" height="29.007" filterUnits="userSpaceOnUse">
      <feOffset dy="3" input="SourceAlpha"/>
      <feGaussianBlur stdDeviation="3" result="blur-7"/>
      <feFlood flood-opacity="0.161"/>
      <feComposite operator="in" in2="blur-7"/>
      <feComposite in="SourceGraphic"/>
    </filter>
    <filter id="Line_1" x="103.155" y="113.479" width="20" height="32.986" filterUnits="userSpaceOnUse">
      <feOffset dy="3" input="SourceAlpha"/>
      <feGaussianBlur stdDeviation="3" result="blur-8"/>
      <feFlood flood-opacity="0.161"/>
      <feComposite operator="in" in2="blur-8"/>
      <feComposite in="SourceGraphic"/>
    </filter>
    <filter id="Line_2" x="166.557" y="113.479" width="20" height="32.986" filterUnits="userSpaceOnUse">
      <feOffset dy="3" input="SourceAlpha"/>
      <feGaussianBlur stdDeviation="3" result="blur-9"/>
      <feFlood flood-opacity="0.161"/>
      <feComposite operator="in" in2="blur-9"/>
      <feComposite in="SourceGraphic"/>
    </filter>
    <filter id="Rectangle_12" x="566" y="116" width="128" height="40" filterUnits="userSpaceOnUse">
      <feOffset dy="3" input="SourceAlpha"/>
      <feGaussianBlur stdDeviation="3" result="blur-10"/>
      <feFlood flood-opacity="0.161"/>
      <feComposite operator="in" in2="blur-10"/>
      <feComposite in="SourceGraphic"/>
    </filter>
    <filter id="Rectangle_10" x="561" y="0" width="40" height="271" filterUnits="userSpaceOnUse">
      <feOffset dy="3" input="SourceAlpha"/>
      <feGaussianBlur stdDeviation="3" result="blur-11"/>
      <feFlood flood-opacity="0.161"/>
      <feComposite operator="in" in2="blur-11"/>
      <feComposite in="SourceGraphic"/>
    </filter>
    <filter id="Rectangle_181" x="659" y="0" width="40" height="271" filterUnits="userSpaceOnUse">
      <feOffset dy="3" input="SourceAlpha"/>
      <feGaussianBlur stdDeviation="3" result="blur-12"/>
      <feFlood flood-opacity="0.161"/>
      <feComposite operator="in" in2="blur-12"/>
      <feComposite in="SourceGraphic"/>
    </filter>
  </defs>
  <g id="Logo" transform="translate(-508 -1283)">
    <g id="Dude_man" data-name="Dude man" transform="translate(134.824 765.536)">
      <g transform="matrix(1, 0, 0, 1, 373.18, 517.46)" filter="url(#Rectangle_15)">
        <rect id="Rectangle_15-2" data-name="Rectangle 15" width="272" height="16" rx="7" transform="translate(9 106)"/>
      </g>
      <g transform="matrix(1, 0, 0, 1, 373.18, 517.46)" filter="url(#Rectangle_17)">
        <path id="Rectangle_17-2" data-name="Rectangle 17" d="M65,0h1a65,65,0,0,1,65,65v0a0,0,0,0,1,0,0H0a0,0,0,0,1,0,0v0A65,65,0,0,1,65,0Z" transform="translate(79 25)"/>
      </g>
      <g transform="matrix(1, 0, 0, 1, 373.18, 517.46)" filter="url(#Rectangle_16)">
        <rect id="Rectangle_16-2" data-name="Rectangle 16" width="131" height="16" transform="translate(79 90)" fill="#fff"/>
      </g>
      <g transform="matrix(1, 0, 0, 1, 373.18, 517.46)" filter="url(#Ellipse_6)">
        <ellipse id="Ellipse_6-2" data-name="Ellipse 6" cx="14" cy="14.5" rx="14" ry="14.5" transform="translate(99 141)"/>
      </g>
      <g transform="matrix(1, 0, 0, 1, 373.18, 517.46)" filter="url(#Ellipse_7)">
        <ellipse id="Ellipse_7-2" data-name="Ellipse 7" cx="14" cy="14.5" rx="14" ry="14.5" transform="translate(163 141)"/>
      </g>
      <g transform="matrix(1, 0, 0, 1, 373.18, 517.46)" filter="url(#Path_4)">
        <path id="Path_4-2" data-name="Path 4" d="M2650.542,687.094a18.617,18.617,0,0,1,13.913-6.182,21.423,21.423,0,0,1,14.906,6.182" transform="translate(-2551.8 -545.91)" fill="none" stroke="#000" stroke-linecap="round" stroke-width="4"/>
      </g>
      <g transform="matrix(1, 0, 0, 1, 373.18, 517.46)" filter="url(#Path_5)">
        <path id="Path_5-2" data-name="Path 5" d="M2650.542,687.094a18.617,18.617,0,0,1,13.913-6.182,21.423,21.423,0,0,1,14.906,6.182" transform="translate(-2488.39 -545.91)" fill="none" stroke="#000" stroke-linecap="round" stroke-width="4"/>
      </g>
      <g transform="matrix(1, 0, 0, 1, 373.18, 517.46)" filter="url(#Line_1)">
        <line id="Line_1-2" data-name="Line 1" y1="14.986" transform="translate(113.15 119.48)" fill="none" stroke="#000" stroke-width="2"/>
      </g>
      <g transform="matrix(1, 0, 0, 1, 373.18, 517.46)" filter="url(#Line_2)">
        <line id="Line_2-2" data-name="Line 2" y1="14.986" transform="translate(176.56 119.48)" fill="none" stroke="#000" stroke-width="2"/>
      </g>
      <path id="Path_7" data-name="Path 7" d="M2717.952,156.236s-7.454-13.766-19.316-12.472-19.369,10.286-26.238,10.366-9.921.039-17.261-1.793,9.853,20.435,23.116,18.524,19.722-9.457,25.665-10.744,9.04-1.594,13.64-.838S2717.952,156.236,2717.952,156.236Z" transform="translate(-2200.311 556.668)"/>
      <path id="Path_10" data-name="Path 10" d="M2655.137,156.236s7.454-13.766,19.316-12.472,19.368,10.286,26.237,10.366,9.921.039,17.261-1.793-9.853,20.435-23.116,18.524-19.722-9.457-25.665-10.744-9.041-1.594-13.641-.838S2655.137,156.236,2655.137,156.236Z" transform="translate(-2136.715 556.668)"/>
    </g>
    <g id="Text" transform="translate(901 1119.5)">
      <g id="Soho-logo-lettering" transform="translate(-263 -541.5)">
        <g id="H">
          <g transform="matrix(1, 0, 0, 1, -130, 705)" filter="url(#Rectangle_12)">
            <rect id="Rectangle_12-2" data-name="Rectangle 12" width="110" height="22" transform="translate(575 122)"/>
          </g>
          <g transform="matrix(1, 0, 0, 1, -130, 705)" filter="url(#Rectangle_10)">
            <rect id="Rectangle_10-2" data-name="Rectangle 10" width="253" height="22" transform="translate(592 6) rotate(90)"/>
          </g>
          <g transform="matrix(1, 0, 0, 1, -130, 705)" filter="url(#Rectangle_181)">
            <rect id="Rectangle_181-2" data-name="Rectangle 181" width="253" height="22" transform="translate(690 6) rotate(90)"/>
          </g>
        </g>
        <g id="o" transform="translate(577 763)" fill="none" stroke="#000" stroke-width="22">
          <circle cx="69" cy="69" r="69" stroke="none"/>
          <circle cx="69" cy="69" r="58" fill="none"/>
        </g>
        <g id="O-2" data-name="O" transform="translate(286 763)" fill="none" stroke="#000" stroke-width="22">
          <circle cx="69" cy="69" r="69" stroke="none"/>
          <circle cx="69" cy="69" r="58" fill="none"/>
        </g>
        <path id="S" d="M2542.648,199.009c-10.738-11.06-46.616-23.657-60.463,4.589-3.6,7.344-3.77,13.37-1.945,18.555,4.793,13.647,25,18.435,25,18.435S2551.3,252.7,2533.6,282.214s-58.228,14.5-69.051,2.443" transform="translate(-2271.648 589.111)" fill="none" stroke="#000" stroke-width="22"/>
      </g>
    </g>
  </g>
</svg>
