<svg xmlns="http://www.w3.org/2000/svg" width="754.309" height="174.467" viewBox="0 0 754.309 174.467">
  <g id="Logo-soho" transform="translate(9561.686 2386.912)">
    <g id="Soho-logo-head-black" transform="translate(-9561.686 -2380)">
      <path id="soho-head-hat-buttom-black" d="M236.681,77.02a7.02,7.02,0,0,1-7.02,7.02H146.923v9.026a20.439,20.439,0,0,1,12.947,5.9,2.007,2.007,0,1,1-2.828,2.848,16.548,16.548,0,0,0-11.563-4.734h-.06a14.191,14.191,0,0,0-10.55,4.714,2.013,2.013,0,1,1-2.979-2.708,18.162,18.162,0,0,1,13.037-6.017V84.04H91.774v9.026a20.439,20.439,0,0,1,12.947,5.9,2.007,2.007,0,0,1-2.828,2.848A16.548,16.548,0,0,0,90.32,97.078h0a14.191,14.191,0,0,0-10.55,4.714,2.035,2.035,0,1,1-3.039-2.708,18.373,18.373,0,0,1,13.037-6.017V84.04H7.02A7.02,7.02,0,0,1,7.02,70H229.66a7.02,7.02,0,0,1,7.02,7.02Z" transform="translate(0 0.202)"/>
      <path id="soho-head-hat-top-black" d="M117.162,0h2.006a56.162,56.162,0,0,1,56.162,56.162H61A56.162,56.162,0,0,1,117.162,0Z" transform="translate(0.176)"/>
      <circle id="soho-head-eye-left-black" cx="12.743" cy="12.743" r="12.743" transform="translate(77.939 100.073)"/>
      <circle id="soho-head-eye-right-black" cx="12.743" cy="12.743" r="12.743" transform="translate(133.28 100.073)"/>
      <path id="soho-head-mustache-black" d="M152.651,160.148c-11.543-1.665-19.055-8.3-22.334-9.347a16.859,16.859,0,0,0-10.35-.762,11.674,11.674,0,0,1-3.61,0,16.859,16.859,0,0,0-10.35.732c-3.239,1-10.791,7.682-22.334,9.347S57.176,142.407,63.614,144s9.026,1.635,15.043,1.564,12.506-7.893,22.826-9.026c9.828-1.083,16.177,9.718,16.758,10.761.582-1,6.93-11.844,16.758-10.761,10.32,1.123,16.848,8.946,22.826,9.026A48.2,48.2,0,0,0,172.869,144C179.287,142.437,164.184,161.813,152.651,160.148Z" transform="translate(0.179 0.394)"/>
    </g>
    <g id="Soho-logo-letters-black" transform="translate(-9999.36 -3272.752)">
      <path id="Path_230" data-name="Path 230" d="M1096.568,885.84v174.467h-18.815V982.481h-65v77.826H993.94V885.84h18.815v77.826h65V885.84Z" transform="translate(-37.145)"/>
      <path id="Path_231" data-name="Path 231" d="M1189.951,1024.865a59.011,59.011,0,1,1,59.011-59.011A59.078,59.078,0,0,1,1189.951,1024.865Zm0-99.207a40.2,40.2,0,1,0,40.2,40.2A40.241,40.241,0,0,0,1189.951,925.658Z" transform="translate(-56.978 -3.041)"/>
      <path id="Path_232" data-name="Path 232" d="M898.952,1024.865a59.011,59.011,0,1,1,59.011-59.011A59.077,59.077,0,0,1,898.952,1024.865Zm0-99.207a40.2,40.2,0,1,0,40.2,40.2A40.241,40.241,0,0,0,898.952,925.658Z" transform="translate(-14.85 -3.041)"/>
      <path id="Path_233" data-name="Path 233" d="M816.725,992.68a30.755,30.755,0,0,1-10.554,23.365c-7.372,6.5-17.823,9.929-30.215,9.929-22.031,0-34.466-9.835-37.758-12.846l-.838-.77,11.05-15.539,1.069.889c6.243,5.234,15.1,11.238,28.265,11.238,12.136,0,19.679-5.858,19.679-15.292,0-9.715-10.126-14.282-21.851-19.576-14.9-6.731-31.78-14.351-31.78-35.022,0-19.012,15.916-32.807,37.853-32.807,18.541,0,28.992,8.475,31.746,11.075l.864.813-11.648,14.471-1.009-.872c-4.105-3.558-10.767-8.3-21.09-8.3-10.673,0-17.566,5.687-17.566,14.479,0,9.929,10.263,14.6,22.142,20C799.912,964.654,816.725,972.291,816.725,992.68Z" transform="translate(0 -2.955)"/>
    </g>
  </g>
</svg>
