<svg id="Soho-logo-head-black" xmlns="http://www.w3.org/2000/svg" width="236.681" height="160.643" viewBox="0 0 236.681 160.643">
  <path id="soho-head-hat-buttom-black" d="M236.681,77.02a7.02,7.02,0,0,1-7.02,7.02H146.923v9.026a20.439,20.439,0,0,1,12.947,5.9,2.007,2.007,0,1,1-2.828,2.848,16.548,16.548,0,0,0-11.563-4.734h-.06a14.191,14.191,0,0,0-10.55,4.714,2.013,2.013,0,1,1-2.979-2.708,18.162,18.162,0,0,1,13.037-6.017V84.04H91.774v9.026a20.439,20.439,0,0,1,12.947,5.9,2.007,2.007,0,0,1-2.828,2.848A16.548,16.548,0,0,0,90.32,97.078h0a14.191,14.191,0,0,0-10.55,4.714,2.035,2.035,0,1,1-3.039-2.708,18.373,18.373,0,0,1,13.037-6.017V84.04H7.02A7.02,7.02,0,0,1,7.02,70H229.66a7.02,7.02,0,0,1,7.02,7.02Z" transform="translate(0 0.202)"/>
  <path id="soho-head-hat-top-black" d="M117.162,0h2.006a56.162,56.162,0,0,1,56.162,56.162H61A56.162,56.162,0,0,1,117.162,0Z" transform="translate(0.176)"/>
  <circle id="soho-head-eye-left-black" cx="12.743" cy="12.743" r="12.743" transform="translate(77.939 100.073)"/>
  <circle id="soho-head-eye-right-black" cx="12.743" cy="12.743" r="12.743" transform="translate(133.28 100.073)"/>
  <path id="soho-head-mustache-black" d="M152.651,160.148c-11.543-1.665-19.055-8.3-22.334-9.347a16.859,16.859,0,0,0-10.35-.762,11.674,11.674,0,0,1-3.61,0,16.859,16.859,0,0,0-10.35.732c-3.239,1-10.791,7.682-22.334,9.347S57.176,142.407,63.614,144s9.026,1.635,15.043,1.564,12.506-7.893,22.826-9.026c9.828-1.083,16.177,9.718,16.758,10.761.582-1,6.93-11.844,16.758-10.761,10.32,1.123,16.848,8.946,22.826,9.026A48.2,48.2,0,0,0,172.869,144C179.287,142.437,164.184,161.813,152.651,160.148Z" transform="translate(0.179 0.394)"/>
</svg>
