<svg xmlns="http://www.w3.org/2000/svg" viewBox="0 0 248.84 76"><defs><style>.cls-1{fill:none;stroke:#000;stroke-width:6px;}</style></defs><g id="Layer_2" data-name="Layer 2"><g id="Logo"><g id="Type"><polygon id="H" points="194.4 0 194.4 35 171.4 35 171.4 0 164.4 0 164.4 76 171.4 76 171.4 42 194.4 42 194.4 76 201.4 76 201.4 0 194.4 0"/><circle id="O" class="cls-1" cx="139.36" cy="38" r="17.65"/><circle id="O-2" data-name="O" class="cls-1" cx="228.19" cy="38" r="17.65"/><path id="S" class="cls-1" d="M114,24.82c-3.22-3.33-14-7.11-18.16,1.38a7,7,0,0,0-.59,5.57c1.44,4.1,7.51,5.54,7.51,5.54s13.84,3.64,8.53,12.5-17.5,4.36-20.75.74"/></g><path d="M79,34.52H2.41a2.42,2.42,0,0,0,0,4.83H30.22V42.7a6.06,6.06,0,0,0-3.68,1.95.5.5,0,0,0,0,.71.54.54,0,0,0,.34.12.5.5,0,0,0,.37-.16,5,5,0,0,1,3.79-1.69,5.87,5.87,0,0,1,4.11,1.71.5.5,0,0,0,.71,0,.49.49,0,0,0,0-.7,6.85,6.85,0,0,0-3.66-1.89V39.35h17v3.34a6,6,0,0,0-3.68,2,.49.49,0,0,0,.37.83.49.49,0,0,0,.37-.16A5.09,5.09,0,0,1,50,43.63h0a5.87,5.87,0,0,1,4.11,1.71.5.5,0,0,0,.71,0,.49.49,0,0,0,0-.7,6.92,6.92,0,0,0-3.67-1.89V39.35H79a2.42,2.42,0,0,0,0-4.83Z"/><path d="M41.05,10.37h-.69A19.32,19.32,0,0,0,21,29.69H60.37A19.32,19.32,0,0,0,41.05,10.37Z"/><path d="M31.22,53.49a4.31,4.31,0,1,0-4.31-4.31A4.31,4.31,0,0,0,31.22,53.49Z"/><path d="M50.19,53.49a4.31,4.31,0,1,0-4.31-4.31A4.31,4.31,0,0,0,50.19,53.49Z"/><path d="M59.49,60.05a16.38,16.38,0,0,1-5.17.54c-2,0-4.3-2.72-7.85-3.1s-5.61,3.42-5.76,3.7c-.16-.28-2.35-4.08-5.77-3.7s-5.8,3.08-7.85,3.1a16.41,16.41,0,0,1-5.17-.54c-2.2-.55,2.95,6.12,6.92,5.54s6.57-2.85,7.68-3.21a5.72,5.72,0,0,1,3.56-.25,2.63,2.63,0,0,0,.63,0,2.59,2.59,0,0,0,.62,0,5.72,5.72,0,0,1,3.56.25c1.12.36,3.71,2.64,7.68,3.21S61.69,59.5,59.49,60.05Z"/></g></g></svg>